<?xml version="1.0" standalone="no"?>
<!DOCTYPE svg PUBLIC "-//W3C//DTD SVG 20010904//EN"
 "http://www.w3.org/TR/2001/REC-SVG-20010904/DTD/svg10.dtd">
<svg version="1.0" xmlns="http://www.w3.org/2000/svg"
 width="622.000000pt" height="622.000000pt" viewBox="0 0 622.000000 622.000000"
 preserveAspectRatio="xMidYMid meet">
<metadata>
Created by potrace 1.11, written by Peter Selinger 2001-2013
</metadata>
<g transform="translate(0.000000,622.000000) scale(0.100000,-0.100000)"
fill="#000000" stroke="none">
<path d="M2970 5688 c-237 -189 -416 -380 -544 -580 -42 -66 -125 -232 -151
-300 l-18 -48 -413 0 -414 0 0 -1630 0 -1630 248 0 c581 -1 1146 0 1148 3 2 1
-25 25 -59 52 -245 197 -400 438 -452 705 -14 75 -14 332 0 410 17 92 58 266
81 341 14 46 26 90 26 97 2 23 16 12 38 -30 63 -122 160 -233 411 -468 250
-234 422 -412 475 -490 194 -284 241 -558 152 -895 -11 -44 -24 -84 -28 -90
-4 -5 -11 -21 -15 -35 -13 -44 -103 -218 -151 -292 -49 -77 -143 -201 -193
-257 -32 -35 -40 -50 -18 -34 11 9 82 65 130 103 163 129 342 324 459 499 65
97 149 260 179 343 l13 37 409 0 c226 1 412 3 415 6 3 3 5 735 5 1627 l0 1623
-702 3 -702 2 73 -59 c141 -113 280 -278 348 -412 37 -71 87 -220 95 -279 3
-25 9 -53 12 -64 7 -24 6 -228 -2 -286 -11 -89 -26 -176 -36 -215 -6 -22 -12
-47 -14 -55 -2 -8 -11 -42 -20 -75 -9 -33 -23 -86 -32 -117 -8 -32 -19 -56
-22 -53 -4 2 -25 32 -46 67 -77 127 -177 237 -419 463 -272 254 -466 459 -466
492 0 6 -6 16 -14 22 -19 16 -72 118 -103 200 -79 206 -82 453 -6 686 23 73
114 272 145 319 7 11 28 45 47 75 39 63 125 177 178 234 19 21 33 40 32 42 -2
2 -38 -24 -79 -57z"/>
</g>
</svg>
