<?xml version="1.0" encoding="UTF-8"?><svg id="Layer_1" xmlns="http://www.w3.org/2000/svg" viewBox="0 0 32 32"><defs><style>.cls-1{fill:none;stroke:#fff;stroke-linecap:round;stroke-miterlimit:10;stroke-width:.25px;}.cls-2{opacity:.1;}.cls-2,.cls-3,.cls-4,.cls-5,.cls-6,.cls-7,.cls-8{stroke-width:0px;}.cls-2,.cls-5{fill:#1b1464;}.cls-3{fill:#4557d8;}.cls-4{fill:#3083fc;}.cls-6{fill:#23a8fe;}.cls-7{fill:#fff;}.cls-8{fill:#e9f3ff;}</style></defs><rect class="cls-8" width="32" height="32"/><rect class="cls-3" x="1" y="1.85" width="24" height="21.27" rx=".59" ry=".59"/><path class="cls-7" d="m17.63,5.45h-9.45c-.71,0-1.29.58-1.29,1.29v6c0,.71.58,1.29,1.29,1.29h9.45c.71,0,1.29-.58,1.29-1.29v-6c0-.71-.58-1.29-1.29-1.29Zm.43,4.97l-2.71-2.7c-.17-.17-.44-.17-.61,0l-3.57,3.56-1.42-1.41c-.17-.17-.44-.17-.61,0l-1.42,1.41v-4.55c0-.24.19-.43.43-.43h9.46c.24,0,.43.19.43.43v3.69h0Z"/><circle class="cls-7" cx="10.74" cy="8.46" r="1.29"/><line class="cls-1" x1="7.01" y1="16.66" x2="15.31" y2="16.66"/><line class="cls-1" x1="7.14" y1="18.6" x2="20.09" y2="18.6"/><path class="cls-4" d="m28.93,14.07h-8.72c-1.14,0-2.07.93-2.07,2.07v8.29c0,1.14.93,2.07,2.07,2.07h5.23c.22,0,.39.21.34.43-.14.59-.35,1.22-.67,1.86-.14.29.18.58.45.41.79-.49,1.91-1.3,2.85-2.46.12-.15.31-.24.5-.24,1.14,0,2.07-.93,2.07-2.07v-8.29c0-1.14-.93-2.07-2.07-2.07h0Z"/><path class="cls-6" d="m24.4,30.15s.04,0,.07-.01c-.1,0-.14.01-.07.01Z"/><path class="cls-2" d="m29.65,16.14v8.29c0,1.07-.83,1.96-1.88,2.06,0,0,0,0,0,0,0,0-1.23,1.63-2.23,2.71.01,0,.03,0,.04-.02.79-.49,1.91-1.3,2.85-2.46.12-.15.31-.24.5-.24.47,0,.91-.16,1.26-.43h0c.18-.14.34-.31.47-.51,0,0,0,0,0,0,.04-.06.07-.12.1-.18,0-.02.02-.03.03-.05.02-.05.04-.1.06-.15,0-.02.02-.05.03-.07.02-.05.03-.09.04-.14,0-.03.01-.05.02-.08.01-.05.02-.1.03-.15,0-.03,0-.05.01-.08,0-.07.01-.15.01-.22,0,0,0,0,0-.01v-8.29c0-.57-.23-1.08-.6-1.46,0,0,0,0,0,0-.02-.02-.04-.04-.06-.06-.37-.34-.86-.55-1.4-.55h-1.36c1.14,0,2.08.93,2.08,2.07Z"/><circle class="cls-5" cx="21.31" cy="20.52" r=".69"/><circle class="cls-5" cx="23.53" cy="20.52" r=".69"/><circle class="cls-5" cx="25.74" cy="20.52" r=".69"/><circle class="cls-5" cx="27.96" cy="20.52" r=".69"/><circle class="cls-7" cx="21.01" cy="20.21" r=".69"/><circle class="cls-7" cx="23.22" cy="20.21" r=".69"/><circle class="cls-7" cx="25.44" cy="20.21" r=".69"/><circle class="cls-7" cx="27.66" cy="20.21" r=".69"/></svg>